<svg width="150" height="39" viewBox="0 0 150 39" fill="none" xmlns="http://www.w3.org/2000/svg">
<g clip-path="url(#clip0_78_4)">
<path d="M5.9 27.6C6.652 27.6 7.276 27.848 7.772 28.344C8.268 28.84 8.516 29.46 8.516 30.204C8.516 30.948 8.268 31.568 7.772 32.064C7.276 32.552 6.652 32.796 5.9 32.796H3.68V36H3.044V27.6H5.9ZM5.9 32.196C6.476 32.196 6.948 32.008 7.316 31.632C7.692 31.256 7.88 30.78 7.88 30.204C7.88 29.62 7.692 29.14 7.316 28.764C6.948 28.388 6.476 28.2 5.9 28.2H3.68V32.196H5.9ZM16.627 27.6H17.263V36H16.627V31.98H11.743V36H11.107V27.6H11.743V31.38H16.627V27.6ZM27.2893 34.872C26.4493 35.712 25.4253 36.132 24.2173 36.132C23.0093 36.132 21.9853 35.712 21.1453 34.872C20.3053 34.024 19.8853 33 19.8853 31.8C19.8853 30.6 20.3053 29.58 21.1453 28.74C21.9853 27.892 23.0093 27.468 24.2173 27.468C25.4253 27.468 26.4493 27.892 27.2893 28.74C28.1293 29.58 28.5493 30.6 28.5493 31.8C28.5493 33 28.1293 34.024 27.2893 34.872ZM21.5893 34.44C22.3093 35.16 23.1853 35.52 24.2173 35.52C25.2493 35.52 26.1213 35.16 26.8333 34.44C27.5533 33.712 27.9133 32.832 27.9133 31.8C27.9133 30.768 27.5533 29.892 26.8333 29.172C26.1213 28.444 25.2493 28.08 24.2173 28.08C23.1853 28.08 22.3093 28.444 21.5893 29.172C20.8773 29.892 20.5213 30.768 20.5213 31.8C20.5213 32.832 20.8773 33.712 21.5893 34.44ZM35.8617 27.6V28.2H33.2217V36H32.5737V28.2H29.9337V27.6H35.8617ZM44.6457 34.872C43.8057 35.712 42.7817 36.132 41.5737 36.132C40.3657 36.132 39.3417 35.712 38.5017 34.872C37.6617 34.024 37.2417 33 37.2417 31.8C37.2417 30.6 37.6617 29.58 38.5017 28.74C39.3417 27.892 40.3657 27.468 41.5737 27.468C42.7817 27.468 43.8057 27.892 44.6457 28.74C45.4857 29.58 45.9057 30.6 45.9057 31.8C45.9057 33 45.4857 34.024 44.6457 34.872ZM38.9457 34.44C39.6657 35.16 40.5417 35.52 41.5737 35.52C42.6057 35.52 43.4777 35.16 44.1897 34.44C44.9097 33.712 45.2697 32.832 45.2697 31.8C45.2697 30.768 44.9097 29.892 44.1897 29.172C43.4777 28.444 42.6057 28.08 41.5737 28.08C40.5417 28.08 39.6657 28.444 38.9457 29.172C38.2337 29.892 37.8777 30.768 37.8777 31.8C37.8777 32.832 38.2337 33.712 38.9457 34.44ZM56.5305 32.088V32.412C56.5305 33.46 56.1585 34.344 55.4145 35.064C54.6705 35.776 53.6905 36.132 52.4745 36.132C51.1945 36.132 50.1385 35.716 49.3065 34.884C48.4745 34.044 48.0585 33.016 48.0585 31.8C48.0585 30.584 48.4705 29.56 49.2945 28.728C50.1185 27.888 51.1625 27.468 52.4265 27.468C53.1945 27.468 53.8985 27.652 54.5385 28.02C55.1865 28.388 55.6865 28.88 56.0385 29.496L55.4745 29.832C55.1945 29.304 54.7785 28.88 54.2265 28.56C53.6825 28.24 53.0825 28.08 52.4265 28.08C51.3385 28.08 50.4425 28.44 49.7385 29.16C49.0425 29.872 48.6945 30.752 48.6945 31.8C48.6945 32.848 49.0465 33.732 49.7505 34.452C50.4545 35.164 51.3625 35.52 52.4745 35.52C53.4585 35.52 54.2545 35.252 54.8625 34.716C55.4705 34.18 55.8105 33.504 55.8825 32.688H52.3185V32.088H56.5305ZM64.4485 36L62.4325 32.556H59.7805V36H59.1445V27.6H62.4565C63.1365 27.6 63.7205 27.844 64.2085 28.332C64.6965 28.82 64.9405 29.404 64.9405 30.084C64.9405 30.652 64.7645 31.156 64.4125 31.596C64.0685 32.036 63.6285 32.328 63.0925 32.472L65.1805 36H64.4485ZM59.7805 28.2V31.956H62.4565C62.9685 31.956 63.4045 31.776 63.7645 31.416C64.1245 31.048 64.3045 30.604 64.3045 30.084C64.3045 29.564 64.1245 29.12 63.7645 28.752C63.4045 28.384 62.9685 28.2 62.4565 28.2H59.7805ZM73.1758 36L72.3598 33.864H68.1478L67.3318 36H66.6598L69.9238 27.6H70.5958L73.8478 36H73.1758ZM68.3878 33.264H72.1318L70.2598 28.38L68.3878 33.264ZM78.9467 27.6C79.6987 27.6 80.3227 27.848 80.8187 28.344C81.3147 28.84 81.5627 29.46 81.5627 30.204C81.5627 30.948 81.3147 31.568 80.8187 32.064C80.3227 32.552 79.6987 32.796 78.9467 32.796H76.7267V36H76.0907V27.6H78.9467ZM78.9467 32.196C79.5227 32.196 79.9947 32.008 80.3627 31.632C80.7387 31.256 80.9267 30.78 80.9267 30.204C80.9267 29.62 80.7387 29.14 80.3627 28.764C79.9947 28.388 79.5227 28.2 78.9467 28.2H76.7267V32.196H78.9467ZM89.6737 27.6H90.3097V36H89.6737V31.98H84.7897V36H84.1537V27.6H84.7897V31.38H89.6737V27.6ZM99.244 27.6L96.184 32.544V36H95.548V32.544L92.488 27.6H93.208L95.872 31.932L98.524 27.6H99.244Z" fill="white"/>
<path d="M6.752 20.252C4.772 20.252 3.386 19.454 2.594 17.858L4.736 16.634C5.132 17.426 5.804 17.822 6.752 17.822C7.412 17.822 7.904 17.666 8.228 17.354C8.552 17.042 8.714 16.616 8.714 16.076V7.4H11.18V16.076C11.18 17.396 10.766 18.422 9.938 19.154C9.11 19.886 8.048 20.252 6.752 20.252ZM22.6965 20L21.9405 17.732H16.9185L16.1625 20H13.4805L17.8905 7.4H20.9685L25.3965 20H22.6965ZM17.7105 15.41H21.1665L19.4385 10.262L17.7105 15.41ZM40.4799 7.4V20H38.0139V11.828L34.4679 17.678H34.1799L30.6339 11.846V20H28.1499V7.4H30.7059L34.3239 13.358L37.9239 7.4H40.4799ZM46.8417 17.624H52.1517V20H44.3577V7.4H52.0617V9.776H46.8417V12.458H51.6117V14.798H46.8417V17.624ZM59.7346 20.252C58.4866 20.252 57.4366 19.976 56.5846 19.424C55.7326 18.86 55.1326 18.098 54.7846 17.138L56.9086 15.896C57.4006 17.18 58.3666 17.822 59.8066 17.822C60.5026 17.822 61.0126 17.696 61.3366 17.444C61.6606 17.192 61.8226 16.874 61.8226 16.49C61.8226 16.046 61.6246 15.704 61.2286 15.464C60.8326 15.212 60.1246 14.942 59.1046 14.654C58.5406 14.486 58.0606 14.318 57.6646 14.15C57.2806 13.982 56.8906 13.76 56.4946 13.484C56.1106 13.196 55.8166 12.836 55.6126 12.404C55.4086 11.972 55.3066 11.468 55.3066 10.892C55.3066 9.752 55.7086 8.846 56.5126 8.174C57.3286 7.49 58.3066 7.148 59.4466 7.148C60.4666 7.148 61.3606 7.4 62.1286 7.904C62.9086 8.396 63.5146 9.086 63.9466 9.974L61.8586 11.18C61.3546 10.1 60.5506 9.56 59.4466 9.56C58.9306 9.56 58.5226 9.68 58.2226 9.92C57.9346 10.148 57.7906 10.448 57.7906 10.82C57.7906 11.216 57.9526 11.54 58.2766 11.792C58.6126 12.032 59.2486 12.296 60.1846 12.584C60.5686 12.704 60.8566 12.8 61.0486 12.872C61.2526 12.932 61.5226 13.034 61.8586 13.178C62.2066 13.31 62.4706 13.436 62.6506 13.556C62.8426 13.676 63.0586 13.838 63.2986 14.042C63.5386 14.246 63.7186 14.456 63.8386 14.672C63.9706 14.888 64.0786 15.152 64.1626 15.464C64.2586 15.764 64.3066 16.094 64.3066 16.454C64.3066 17.618 63.8806 18.542 63.0286 19.226C62.1886 19.91 61.0906 20.252 59.7346 20.252ZM77.7887 20.252C76.5407 20.252 75.4907 19.976 74.6387 19.424C73.7867 18.86 73.1867 18.098 72.8387 17.138L74.9627 15.896C75.4547 17.18 76.4207 17.822 77.8607 17.822C78.5567 17.822 79.0667 17.696 79.3907 17.444C79.7147 17.192 79.8767 16.874 79.8767 16.49C79.8767 16.046 79.6787 15.704 79.2827 15.464C78.8867 15.212 78.1787 14.942 77.1587 14.654C76.5947 14.486 76.1147 14.318 75.7187 14.15C75.3347 13.982 74.9447 13.76 74.5487 13.484C74.1647 13.196 73.8707 12.836 73.6667 12.404C73.4627 11.972 73.3607 11.468 73.3607 10.892C73.3607 9.752 73.7627 8.846 74.5667 8.174C75.3827 7.49 76.3607 7.148 77.5007 7.148C78.5207 7.148 79.4147 7.4 80.1827 7.904C80.9627 8.396 81.5687 9.086 82.0007 9.974L79.9127 11.18C79.4087 10.1 78.6047 9.56 77.5007 9.56C76.9847 9.56 76.5767 9.68 76.2767 9.92C75.9887 10.148 75.8447 10.448 75.8447 10.82C75.8447 11.216 76.0067 11.54 76.3307 11.792C76.6667 12.032 77.3027 12.296 78.2387 12.584C78.6227 12.704 78.9107 12.8 79.1027 12.872C79.3067 12.932 79.5767 13.034 79.9127 13.178C80.2607 13.31 80.5247 13.436 80.7047 13.556C80.8967 13.676 81.1127 13.838 81.3527 14.042C81.5927 14.246 81.7727 14.456 81.8927 14.672C82.0247 14.888 82.1327 15.152 82.2167 15.464C82.3127 15.764 82.3607 16.094 82.3607 16.454C82.3607 17.618 81.9347 18.542 81.0827 19.226C80.2427 19.91 79.1447 20.252 77.7887 20.252ZM90.121 7.4C91.333 7.4 92.353 7.808 93.181 8.624C94.009 9.44 94.423 10.442 94.423 11.63C94.423 12.818 94.009 13.82 93.181 14.636C92.353 15.452 91.333 15.86 90.121 15.86H87.907V20H85.423V7.4H90.121ZM90.121 13.538C90.649 13.538 91.087 13.358 91.435 12.998C91.783 12.626 91.957 12.17 91.957 11.63C91.957 11.078 91.783 10.622 91.435 10.262C91.087 9.902 90.649 9.722 90.121 9.722H87.907V13.538H90.121ZM104.387 20L103.631 17.732H98.609L97.853 20H95.171L99.581 7.4H102.659L107.087 20H104.387ZM99.401 15.41H102.857L101.129 10.262L99.401 15.41ZM114.844 7.4C116.572 7.4 118.012 8.006 119.164 9.218C120.328 10.43 120.91 11.924 120.91 13.7C120.91 15.476 120.328 16.97 119.164 18.182C118.012 19.394 116.572 20 114.844 20H109.84V7.4H114.844ZM114.844 17.624C115.936 17.624 116.824 17.264 117.508 16.544C118.192 15.812 118.534 14.864 118.534 13.7C118.534 12.536 118.192 11.594 117.508 10.874C116.824 10.142 115.936 9.776 114.844 9.776H112.324V17.624H114.844ZM126.686 17.624H131.996V20H124.202V7.4H131.906V9.776H126.686V12.458H131.456V14.798H126.686V17.624ZM142.189 20L139.651 15.626H137.761V20H135.277V7.4H140.317C141.481 7.4 142.471 7.808 143.287 8.624C144.103 9.44 144.511 10.424 144.511 11.576C144.511 12.356 144.289 13.082 143.845 13.754C143.401 14.414 142.813 14.912 142.081 15.248L144.871 20H142.189ZM137.761 9.722V13.448H140.317C140.785 13.448 141.187 13.268 141.523 12.908C141.859 12.536 142.027 12.092 142.027 11.576C142.027 11.06 141.859 10.622 141.523 10.262C141.187 9.902 140.785 9.722 140.317 9.722H137.761Z" fill="white"/>
</g>
<defs>
<clipPath id="clip0_78_4">
<rect width="150" height="39" fill="white"/>
</clipPath>
</defs>
</svg>
